<svg width="25" height="25" viewBox="0 0 25 25" fill="none" xmlns="http://www.w3.org/2000/svg">
<path d="M13.2101 15.5568L10.6701 13.0468L10.7001 13.0168C12.4401 11.0768 13.6801 8.84685 14.4101 6.48685H17.3401V4.48685H10.3401V2.48685H8.34006V4.48685H1.34006V6.47685H12.5101C11.8401 8.40685 10.7801 10.2368 9.34006 11.8368C8.41006 10.8068 7.64006 9.67685 7.03006 8.48685H5.03006C5.76006 10.1168 6.76006 11.6568 8.01006 13.0468L2.92006 18.0668L4.34006 19.4868L9.34006 14.4868L12.4501 17.5968L13.2101 15.5568ZM18.8401 10.4868H16.8401L12.3401 22.4868H14.3401L15.4601 19.4868H20.2101L21.3401 22.4868H23.3401L18.8401 10.4868ZM16.2201 17.4868L17.8401 13.1568L19.4601 17.4868H16.2201Z" fill="#FD2256"/>
</svg>
